<svg xmlns="http://www.w3.org/2000/svg" viewBox="0 0 320 188.02"><defs><style>.cls-1{fill:#99e2df;}.cls-2{fill:#77d9d5;}.cls-3{fill:#6bd7d2;}.cls-4{fill:#72d7d4;}.cls-5{fill:#7fdbd7;}.cls-6{fill:#84dcd9;}.cls-7{fill:#7adad6;}.cls-8{fill:#67d6d1;}.cls-9{fill:#6fd8d3;}.cls-10{fill:#93e0dd;}.cls-11{fill:#53d1cc;}.cls-12{fill:#64d5d0;}.cls-13{fill:#60d4cf;}.cls-14{fill:#89ddda;}.cls-15{fill:#5dd4cf;}.cls-16{fill:#57d2cd;}.cls-17{fill:#8fdfdc;}.cls-18{fill:#5ad3ce;}.cls-19{fill:#96e1de;}.cls-20{fill:#4ed0cb;}.cls-21{fill:#4acfca;}.cls-22{fill:#46cfc9;}.cls-23{fill:#85dcd9;}.cls-24{fill:#8cdedb;}.cls-25{fill:#82dcd8;}.cls-26{fill:#89deda;}.cls-27{fill:#7ddad7;}.cls-28{fill:#42cec9;}.cls-29{fill:#3fcec8;}</style></defs><g id="Layer_2" data-name="Layer 2"><g id="Layer_1-2" data-name="Layer 1"><g id="ATeSip.tif"><path class="cls-1" d="M0,187.8a236.66,236.66,0,0,1,28.83-42.63c14-16.38,29.83-30.54,48.52-41.34A120.31,120.31,0,0,1,104.43,92c.85,1.1,0,1.84-.59,2.62-3.75,4.87-8.12,9.21-11.8,14.15A283,283,0,0,0,72.2,138.9a168.59,168.59,0,0,0-9.12,18.55c-3.16,7.67-6.82,15.16-8.71,23.33a32.22,32.22,0,0,1-2.41,7Z"/><path class="cls-2" d="M132.41,187.8h-10c-.77-1.21,0-2.25.44-3.27a177.76,177.76,0,0,1,18-31.32c13.56-19,30.86-33.85,50.88-45.61a161,161,0,0,1,23.88-11.32,155.9,155.9,0,0,1,28.08-7.74A115.53,115.53,0,0,1,267,86.21c7.07.17,14.14,0,21.21.19a52.06,52.06,0,0,1,6.17.79c7.88,1.24,15.66,3,23.46,4.71a3.79,3.79,0,0,1,2,1v10c-2.15.94-4.08-.27-6-.79a175.69,175.69,0,0,0-23.72-4.45,119.24,119.24,0,0,0-19.9-1.07,168.53,168.53,0,0,0-34.77,4.68,155.69,155.69,0,0,0-75,44.68,179.93,179.93,0,0,0-13,16.3c-4.64,6.28-7.67,13.35-11.63,19.93C134.66,184.05,134.66,186.59,132.41,187.8Z"/><path class="cls-3" d="M319.78,116.88v9c-1.21,1-2.4.32-3.53-.12-9.14-3.55-18.76-5.1-28.35-6.65a85.46,85.46,0,0,0-15.16-1c-4.54.08-9.08.68-13.61,1.1a121.33,121.33,0,0,0-19.82,3.52,132.2,132.2,0,0,0-44.07,21.12,122.18,122.18,0,0,0-21.83,20.3c-3.36,4-6.48,8.2-9.51,12.48-2.56,3.61-4.46,7.59-7,11.17H147.4c-1.11-1-.51-1.92,0-2.9,1.56-3,3.72-5.72,5.22-8.77,2.17-4.43,5.36-8.17,8-12.29a47.78,47.78,0,0,1,6.15-7.47c3.69-3.79,7.23-7.73,11.16-11.28a145.32,145.32,0,0,1,24.22-17.78,167.33,167.33,0,0,1,17.48-8.43,128.23,128.23,0,0,1,22-7A123,123,0,0,1,260.76,109a81.24,81.24,0,0,1,8.61-.65c4.77.17,9.57-.57,14.33.5,2.65.59,5.41.5,8.12.79,9.4,1,18.29,3.87,27.25,6.59C319.41,116.32,319.58,116.62,319.78,116.88Z"/><path class="cls-4" d="M132.41,187.8c3.72-7.24,7.11-14.67,11.29-21.64a101.85,101.85,0,0,1,8.18-11.4,184.51,184.51,0,0,1,13-14.49,135.48,135.48,0,0,1,19.21-16,155.11,155.11,0,0,1,43.8-21.65,137,137,0,0,1,25.23-5.27,140.47,140.47,0,0,1,44.23.64c4.53.8,9.12,1.38,13.57,2.51,2.95.74,5.85,1.74,8.84,2.38v8c-2.62.72-5.14-.29-7.38-1.13-5.66-2.12-11.5-3.06-17.42-3.87-4.18-.58-8.34-1.27-12.58-1.52-3.48-.2-6.95-.24-10.44-.3a154,154,0,0,0-22.8,1.83,81.55,81.55,0,0,0-9.5,2,169.22,169.22,0,0,0-19.3,5.89,139.83,139.83,0,0,0-20.58,10.05,158.71,158.71,0,0,0-17.09,11.58,142.32,142.32,0,0,0-17.11,16,207.82,207.82,0,0,0-17.74,23.39c-1.73,2.57-2.8,5.64-4.09,8.52-.77,1.73-1.39,3.6-3.35,4.45Z"/><path class="cls-5" d="M175.38,92.94a174.68,174.68,0,0,0,29.45,1.53c-.26,1.32-1.43,1.14-2.17,1-5.74-1-10.2,1.82-14.81,4.49a181.83,181.83,0,0,0-37,28.54,169.41,169.41,0,0,0-23.91,30.21,136.3,136.3,0,0,0-13.68,27.35,2.9,2.9,0,0,1-1.32,1.74H100.43c-.83-.92-.33-1.85-.05-2.8,1.92-6.41,5-12.32,7.91-18.28a172.35,172.35,0,0,1,11.4-19.61,189.58,189.58,0,0,1,17.45-22.37,218,218,0,0,1,23.13-21.22C165,99.62,170.36,96.49,175.38,92.94Z"/><path class="cls-6" d="M175.38,92.94c-.65,2.17-2.8,2.8-4.36,3.77-7.4,4.62-14,10.23-20.58,15.89a142.66,142.66,0,0,0-18.29,18.82,190.82,190.82,0,0,0-14.58,20.29q-6.25,10.31-11.61,21a98.81,98.81,0,0,0-5.36,13.32,7.55,7.55,0,0,0-.17,1.72H88.94c-.54-.6-.3-1.27-.07-1.88a198,198,0,0,1,9.92-23.13c2.78-5.29,5.6-10.55,8.52-15.76a88.57,88.57,0,0,1,5.59-8.56,224.17,224.17,0,0,1,26.34-30.56,200.07,200.07,0,0,1,17.3-14.3,27.46,27.46,0,0,0,4.35-3.7l12.59,2.52C174.12,92.56,174.75,92.77,175.38,92.94Z"/><path class="cls-7" d="M319.78,92.9c-5-.45-9.81-2.28-14.77-3.15-5.55-1-11.09-2.42-16.67-2.7A259.34,259.34,0,0,0,261,87a152.57,152.57,0,0,0-27.35,4.35,156.79,156.79,0,0,0-34.06,12.67,165.65,165.65,0,0,0-30.55,20.23,192,192,0,0,0-18,17.32c-8.62,9.28-15.33,19.81-21.55,30.68a81.41,81.41,0,0,0-7.13,15.52h-4.5c-.8-1-.31-1.93.08-2.81,2.75-6.32,5.31-12.73,9.22-18.48,1.46-2.14,2.42-4.54,3.78-6.74a166.36,166.36,0,0,1,28.42-33.87c9.62-9,20.3-16.29,31.61-22.89,5.48-3.21,11.29-5.66,16.9-8.55.95-.49,2,0,2.9-.5A111,111,0,0,0,249.1,81.81a8.88,8.88,0,0,1,1.16-.42c3.79-1,7.68-1.1,11.56-1.47a117.1,117.1,0,0,1,17.66-.32A168.61,168.61,0,0,1,302,82.15c4.07.78,8.18,1.38,12.21,2.35,2,.48,4,.89,5.59,2.41Z"/><path class="cls-8" d="M156.89,187.8c.53-3,2.3-5.53,3.91-8,3.33-5,7.16-9.68,10.76-14.51a73.81,73.81,0,0,1,7.53-8.18c2.45-2.44,4.63-5.13,7.42-7.28a206.71,206.71,0,0,1,21.91-15.33,129.11,129.11,0,0,1,23.06-10.19,108.44,108.44,0,0,1,21.67-5.09c6.5-.85,13-1.81,19.52-1.82a116.32,116.32,0,0,1,27,3.1c6,1.4,12,2.45,17.64,4.91a5.33,5.33,0,0,0,2.43.41v7c-2.08,1.08-3.81-.38-5.35-1.14-4.33-2.14-9.09-2.47-13.6-3.81A73.69,73.69,0,0,0,286,125.29a141.25,141.25,0,0,0-28.26.24c-9.15,1-17.9,3.51-26.56,6.29a87.53,87.53,0,0,0-18,8.28,184.65,184.65,0,0,0-16.56,10.61,112.21,112.21,0,0,0-14.68,13.75c-5.39,5.86-10.06,12.26-15,18.52-1.18,1.52-1.53,3.53-3,4.82Z"/><path class="cls-9" d="M140.4,187.8c2.35-2.26,3.28-5.41,4.42-8.23,2.34-5.73,6.5-10.12,9.72-15.17a109.35,109.35,0,0,1,11.9-14.73,123.81,123.81,0,0,1,19.34-17.39c4.29-3.07,8.75-5.92,13.27-8.69a137.27,137.27,0,0,1,20.59-10.19,106,106,0,0,1,13.52-4.33c4.78-1.2,9.56-2.52,14.38-3.56a102.23,102.23,0,0,1,12.12-1.59,136.71,136.71,0,0,1,20.23-.39,91.36,91.36,0,0,1,9.55.88c2.23.36,4.53,1.08,6.95.91,2-.14,4,.58,6,1.08,3.55.9,7.16,1.4,10.62,2.88a26.83,26.83,0,0,0,6.8,1.6v6c-3.84-.87-7.55-2.18-11.31-3.34-2.66-.82-5.42-1.27-8.12-2a68.35,68.35,0,0,0-12.05-1.73c-3.2-.26-6.45-1.18-9.51-.93-4.43.36-8.82-.35-13.24.31s-8.84.4-13.11,1.32c-5,1.06-10,1.61-15,3-4.38,1.27-8.73,2.78-13.19,3.86-3,.74-6,2.5-8.91,3.93-2.47,1.22-5.11,2.06-7.45,3.52-4.64,2.88-9.61,5.17-14,8.55-2.3,1.77-4.74,3.42-7.08,5.17-2.09,1.56-4.35,2.9-6,5-.8,1-2.05,1.51-3,2.41a156.85,156.85,0,0,0-13.56,14.21,116.11,116.11,0,0,0-11.8,17.5c-1.46,2.65-3.23,5.16-4.77,7.79a2.8,2.8,0,0,0-.34,2.3Z"/><path class="cls-10" d="M118.9,88.48a65.06,65.06,0,0,1,15-1.5c-.08,1.5-1.21,2.33-2.18,3.16a160.75,160.75,0,0,0-13.92,13.2A226.41,226.41,0,0,0,96.06,130.6a187.48,187.48,0,0,0-12.12,20.3A216.24,216.24,0,0,0,72,178.3a63.64,63.64,0,0,1-3.58,9.5h-9a1.88,1.88,0,0,1-.45-2.48c1.08-2.17,1.44-4.58,2.11-6.86,2.39-8.12,6.21-15.65,9.47-23.38,2.32-5.52,4.68-11.19,8.49-16,1.17-1.47,1.63-3.36,2.62-5,2.47-4.12,5.46-7.88,7.93-12a104.33,104.33,0,0,1,14-18.32c3.21-3.38,6.67-6.56,9.3-10.47A15.6,15.6,0,0,1,118.9,88.48Z"/><path class="cls-11" d="M211.85,187.8H199.36c.38-3,2.65-4.67,4.61-6.47,3.79-3.48,8-6.5,11.91-9.77,9.76-8.12,21.25-12.56,33.15-15.91a72.36,72.36,0,0,1,18.37-3c5.16-.07,10.36-.37,15.6.54,4,.69,8,1.14,11.94,2.06a84.5,84.5,0,0,1,20.8,7.37c1.42.76,3.3.86,4,2.66v9.49c-1.24.77-2.26,0-3.23-.55a82.23,82.23,0,0,0-14.17-6.63c-6.73-2.27-13.52-4.53-20.75-4.64a6.72,6.72,0,0,1-1.74-.08c-5.3-1.62-10.53-.19-15.81.17a81.06,81.06,0,0,0-17.78,3.59,84.38,84.38,0,0,0-23.14,11.39A75,75,0,0,0,211.85,187.8Z"/><path class="cls-12" d="M163.89,187.8a16.45,16.45,0,0,1,4.2-7.35c3.24-3.61,5.76-7.74,9-11.38,4.7-5.24,9.23-10.67,14.51-15.27a96.88,96.88,0,0,1,12.48-9c3.76-2.35,7.57-4.67,11.42-6.82a49.77,49.77,0,0,1,9.44-4.32c3.1-1,6.06-2.62,9.28-3.46,4-1,8-2.22,12-3.2A98.5,98.5,0,0,1,258,124.91c4.22-.51,8.46-.62,12.69-.94,4.59-.36,9.1.41,13.63.62,3.33.15,6.75.78,10.1,1.2,4.43.54,8.42,2.73,13,2.75,2.13,0,4.24,1.59,6.42,2.3,2,.66,3.8,1.9,6,2v6.5c-.87.73-1.73.26-2.59,0-2.44-.83-4.85-1.75-7.29-2.58A111.59,111.59,0,0,0,274.62,131a109.16,109.16,0,0,0-20.14,1.18,114.29,114.29,0,0,0-19.82,5,152.12,152.12,0,0,0-18,7.88,108.62,108.62,0,0,0-11.42,7.1,122.85,122.85,0,0,0-16.25,13.56,116.53,116.53,0,0,0-15.61,19.05c-.72,1.1-1.22,2.39-2.45,3.09Z"/><path class="cls-13" d="M170.88,187.8a56.73,56.73,0,0,1,7.37-11.07c3.74-4.52,7.3-9.22,11.74-13.09s8.49-7.82,13.43-11c3.31-2.11,6.37-4.63,9.83-6.58a133.25,133.25,0,0,1,25-10.88,101.72,101.72,0,0,1,14.69-3.55,99.7,99.7,0,0,1,17.27-1.4c3.14.05,6.29,0,9.43.12a132.94,132.94,0,0,1,22,3.26c5.87,1.27,11.34,3.55,16.93,5.56a5.52,5.52,0,0,0,1.23.16v6c-.93.68-1.77.07-2.59-.23a163.05,163.05,0,0,0-22.73-6.66c-8.6-1.85-17.3-2.05-26.06-1.9a102.6,102.6,0,0,0-20.47,2.6,110.75,110.75,0,0,0-20.08,6.74A108.57,108.57,0,0,0,191,171.81a102.58,102.58,0,0,0-11.91,14.71,8.39,8.39,0,0,1-1.17,1.28Z"/><path class="cls-14" d="M160.89,89.91a4,4,0,0,1-2.09,2.9,162.57,162.57,0,0,0-28.47,25.06,240.1,240.1,0,0,0-15.19,18.67A159.55,159.55,0,0,0,103.52,155c-4.8,8.85-9.47,17.83-12.68,27.45-.6,1.81-1.27,3.59-1.9,5.38h-7.5c-.75-.82-.43-1.69-.12-2.57,4.2-11.67,8.89-23.13,15-33.94a215,215,0,0,1,21.27-31,205.19,205.19,0,0,1,31.7-30.59,5,5,0,0,1,2.08-1.33A25.92,25.92,0,0,1,160.89,89.91Z"/><path class="cls-15" d="M177.88,187.8c1.22-3.82,4.05-6.6,6.44-9.62a135.68,135.68,0,0,1,14.49-15,95.83,95.83,0,0,1,17-12.05,117.6,117.6,0,0,1,25.79-11,104.26,104.26,0,0,1,18.86-3.63c5.12-.55,10.19-.48,15.28-.61a87.33,87.33,0,0,1,21.87,2.58,190.72,190.72,0,0,1,22.21,6.87v6c-1.1.91-2.22.36-3.31,0-2.93-.94-5.63-2.45-8.59-3.37a121.85,121.85,0,0,0-28-5.56A108.84,108.84,0,0,0,246,145.66,105.44,105.44,0,0,0,208.7,163.5a101,101,0,0,0-22,22.25,11,11,0,0,1-1.81,2.05Z"/><path class="cls-16" d="M319.78,165.33c-6.43-3.14-12.82-6.27-19.86-8-4.35-1.1-8.7-2.56-13.1-3-4-.4-8-1.6-12.21-.86-2.74.48-5.62-.3-8.49,0-4.29.47-8.53,1.26-12.78,2a58.84,58.84,0,0,0-13,3.66c-5.84,2.45-11.72,4.68-17.19,8-5,3-9.36,6.82-13.88,10.36-3.69,2.89-7.59,5.94-9.88,10.33h-8c-.42-1.27.49-2,1.15-2.82,11.7-14.22,26-25,43.17-31.63a106.76,106.76,0,0,1,22.64-5.88,109.89,109.89,0,0,1,14.09-1c4.6-.08,9.32-.32,13.91.64,5,1,10.06,1.46,14.88,3.1a179.64,179.64,0,0,1,17.23,6.5,4.79,4.79,0,0,1,1.34,1.11Z"/><path class="cls-17" d="M68.45,187.8c.45-4.52,2.8-8.43,4.14-12.67,2.66-8.47,6.64-16.42,10.63-24.26a165.52,165.52,0,0,1,11.06-18.76,244.16,244.16,0,0,1,20.86-26.77,167.23,167.23,0,0,1,16-15.48A30.94,30.94,0,0,0,133.88,87c3.7.08,7.42-.54,11.09.4-2.48,2.7-5.46,4.85-8.23,7.23a196.74,196.74,0,0,0-20.66,20.88,189.14,189.14,0,0,0-14.87,19.69,220.4,220.4,0,0,0-18.69,34.9,146.86,146.86,0,0,0-5.87,16.16,3.17,3.17,0,0,1-.7,1.56Z"/><path class="cls-18" d="M319.78,157.84c-5.16-2-10.3-4.07-15.5-6-4-1.48-8.31-2.11-12.48-3.1-5.95-1.4-12-1.28-18-1.78-2.36-.19-4.76.32-7.16.41a94.4,94.4,0,0,0-18.56,2.86,99.45,99.45,0,0,0-38.73,19c-3.66,2.9-7.35,5.82-10.23,9.7a74.82,74.82,0,0,1-6.09,6.42,8.28,8.28,0,0,0-1.67,2.44h-6.5c.93-3.15,3.53-5.14,5.43-7.6,7-9.07,15.77-16.25,25.39-22.29a99.42,99.42,0,0,1,20.22-9.8,128.78,128.78,0,0,1,17.88-4.94c3.63-.7,7.37-.92,11.06-1.31a61.52,61.52,0,0,1,10.42-.5,126.57,126.57,0,0,1,24.22,3.51,132.5,132.5,0,0,1,16.91,5.75,6.56,6.56,0,0,0,3.38.72Z"/><path class="cls-19" d="M118.9,88.48c-.2,1.81-2.13,1.52-3.05,2.51-1.94,2.08-3.69,4.31-5.5,6.5-1.17,1.41-3,2.61-3.87,3.8-2,2.8-5,4.72-6.74,7.66-2,3.4-4.91,6-7,9.41-1.76,2.86-3.32,5.91-5.33,8.56-2.23,3-4.81,5.88-6.27,9.1-1.7,3.74-4.39,6.79-6,10.54-2.78,6.55-5.91,13-8.52,19.57-.89,2.28-2.73,4-3.08,6.57-.61,4.45-2.89,8.39-4.07,12.68a4.85,4.85,0,0,0,0,2.42H52c-.37-3.22,1.69-5.82,2.26-8.82,1-5.06,3.33-9.68,5.19-14.45s3.9-9.23,5.88-13.83c2.15-5,5.07-9.58,7.63-14.35C76.09,130.43,80,125,83.37,119.19c1.45-2.47,3.76-4.42,5.34-6.83C93.05,105.71,98.54,100,103.63,94a2.62,2.62,0,0,0,.8-2A75,75,0,0,1,118.9,88.48Z"/><path class="cls-20" d="M211.85,187.8c0-.58-.06-1.23.44-1.63,3-2.33,5.53-5.19,8.62-7.45a131.45,131.45,0,0,1,12.29-7.42,65.83,65.83,0,0,1,9.75-4.09c4.42-1.66,9-2.54,13.5-3.92,2.62-.82,5.38-.38,8.07-.85,2.1-.37,4.24-.6,6.35-1a9.33,9.33,0,0,1,4,0,58.25,58.25,0,0,0,10.32,1.29c4.26.35,8.14,2.16,12.16,2.78,4.76.74,8.52,3.52,13,4.61,2.16.53,4.12,2.33,6.24,3.45a12.6,12.6,0,0,0,3.2,1.28v8.49c-1.35.74-2.2-.36-3.11-.94a79.73,79.73,0,0,0-28-11.39,80.64,80.64,0,0,0-40.56,2.54,77.36,77.36,0,0,0-24.43,13.07,20,20,0,0,0-1.87,1.21Z"/><path class="cls-7" d="M210.83,94a184.53,184.53,0,0,0-22.55,11.27,158.13,158.13,0,0,0-22.19,15.44,197,197,0,0,0-19.15,18.75,176,176,0,0,0-12.06,15.37c-3.17,4.43-5.65,9.36-8.47,14-3.14,5.2-5.4,10.82-7.86,16.33a14.51,14.51,0,0,0-.63,2.64h-6c2.71-7.74,6.43-15,10.23-22.25,3.67-7,8.28-13.35,12.77-19.76a112.37,112.37,0,0,1,12.89-15.34,214.17,214.17,0,0,1,18.86-16.84,225.5,225.5,0,0,1,25.42-16.78,15.29,15.29,0,0,1,7.87-2c1.62-.06,3.31.46,4.87-.41C206.84,94.4,208.79,93.69,210.83,94Z"/><path class="cls-21" d="M221.85,187.8c1.87-3,5.05-4.38,7.76-6.35a59.45,59.45,0,0,1,14.08-7.2,85,85,0,0,1,33.56-5.36,78.55,78.55,0,0,1,19.67,3.46A86,86,0,0,1,318.84,183a3.43,3.43,0,0,0,.94.28c0,1.5.58,3.58-.17,4.33s-2.83.16-4.33.16h-1a74.71,74.71,0,0,0-45.06-12.26A73,73,0,0,0,246,180.42c-5.17,2-9.76,4.88-14.61,7.38Z"/><path class="cls-22" d="M231.34,187.8a4.2,4.2,0,0,1,1.78-1.66,71.11,71.11,0,0,1,26.77-10.3,77.55,77.55,0,0,1,31,.85,69.47,69.47,0,0,1,21.71,9.17c.73.47,1.73.77,1.69,1.94h-12c-5.17-3.05-10.93-4.35-16.72-5.4-12.42-2.27-24.63-1-36.55,3-1.94.65-3.7,1.82-5.69,2.39Z"/><path class="cls-23" d="M274.31,63.93l9-9c3.42-.82,6.78.26,10.14.48,8.3.56,16.43,2.36,24.53,4.18a3.83,3.83,0,0,1,1.79.83v9c-2.26,1-4.46-.08-6.46-.61-5.9-1.56-11.91-2.23-17.91-3.06a93.47,93.47,0,0,0-18.54-1A3.5,3.5,0,0,1,274.31,63.93Z"/><path class="cls-24" d="M151.41,88.36c-1.86,2.51-4.64,4-6.92,6-6.08,5.38-12.09,10.79-17.73,16.64a218.56,218.56,0,0,0-17.12,20.51,143.72,143.72,0,0,0-8.81,13.21,202.24,202.24,0,0,0-10.37,19.52,175.38,175.38,0,0,0-7.61,19.15c-.47,1.48-1.66,2.73-1.41,4.44h-3c-.87-1.13-.28-2.28.12-3.31,3.41-8.82,6.72-17.7,10.85-26.22,1.83-3.79,4-7.44,6.18-11.09a204.86,204.86,0,0,1,18.71-27.31A200.32,200.32,0,0,1,143.43,91a17,17,0,0,0,2.06-1.81A3.86,3.86,0,0,1,150,87.89C150.49,87.89,151.06,87.78,151.41,88.36Z"/><path class="cls-24" d="M150,87.89A4.69,4.69,0,0,0,146,89.48c-3.42,3.12-7.13,5.92-10.5,9.09a210,210,0,0,0-15.6,15.83c-3.66,4.27-7.21,8.6-10.69,13-2.4,3-4.46,6.35-6.57,9.61-2.41,3.75-4.8,7.53-7,11.39a158.59,158.59,0,0,0-11.65,24c-1.75,4.72-3.59,9.41-5.36,14.13a4.85,4.85,0,0,0-.15,1.22H76c.11-3.82,2-7.15,3.17-10.62a172.49,172.49,0,0,1,9.11-20.87A208.31,208.31,0,0,1,107.7,125a191.16,191.16,0,0,1,14.59-17.21,187.4,187.4,0,0,1,20.15-18.68c.8-.62,1.15-1.94,2.53-1.69C146.63,87.58,148.37,87,150,87.89Z"/><path class="cls-25" d="M274.31,63.93c3.6.48,7.23.06,10.86.29,5.22.34,10.37,1,15.53,1.64A115.26,115.26,0,0,1,312.94,68c2.26.53,4.56.93,6.84,1.4v6.49c-.84.69-1.73.36-2.62.13a171.3,171.3,0,0,0-32.25-5.14c-4.52-.27-9.09-.9-13.66-.38-1.24.14-2.53.15-3.37-1.09Z"/><path class="cls-5" d="M267.88,69.44c2.87,1.17,5.87.24,8.78.35a186.56,186.56,0,0,1,37.81,4.95c1.76.43,3.54.79,5.31,1.18v5c-1.11.83-2.25.3-3.32,0-8.36-2.51-17-3.5-25.59-4.7-5.33-.75-10.69-.61-16-1a32.37,32.37,0,0,0-10.09.33,4.81,4.81,0,0,1-4-.59Z"/><path class="cls-26" d="M319.78,60.44a25.53,25.53,0,0,1-6.08-1A145.2,145.2,0,0,0,296,56.41c-4.22-.51-8.51-.37-12.66-1.46a69.57,69.57,0,0,1,5.84-6.54c1.36-1.28,3-.77,4.51-.58,8.38,1.08,16.73,2.41,25,4a2.46,2.46,0,0,1,1.09.58Z"/><path class="cls-27" d="M319.78,86.91c-7.24-2.47-14.77-3.51-22.28-4.77a161.76,161.76,0,0,0-22.14-2.08,115,115,0,0,0-13.61.45c-3.81.34-7.63,1.1-11.49.88l8.07-5c6,.58,11.9-.52,17.88-.32,5.48.18,10.91.78,16.36,1.23,8.63.7,17,2.65,25.41,4.79a4.1,4.1,0,0,1,1.8.78Z"/><path class="cls-28" d="M243.33,187.8c3-2.59,6.79-3.36,10.44-4.49a56.84,56.84,0,0,1,18.5-2.6c3.89.1,7.8-.14,11.77.74a112.48,112.48,0,0,1,12.27,3c2.09.72,4.82.83,6,3.38h-10c-1.12-1-2.59-.27-3.8-.78-4.12-1.73-8.66-1-12.89-2.12a9.38,9.38,0,0,0-3.2.14c-3.42.3-6.93,0-10.24.85-2.61.63-5.25,1.18-7.85,1.91Z"/><path class="cls-10" d="M297.84,37q2.73-4,5.47-8c2.56-1.69,5,.22,7.46.36,3,.17,6,1.3,9,1.63v9.49c-1.16,1-2.5.73-3.8.5-5-.85-9.89-2-14.93-2.5C299.88,38.35,298.5,38.34,297.84,37Z"/><path class="cls-17" d="M297.84,37c4.69.83,9.38,1.74,14.1,2.44,2.6.39,5.13,1.46,7.84,1v7a2.82,2.82,0,0,1-2.59.35,208.7,208.7,0,0,0-21.51-3.54,3.3,3.3,0,0,1-2.5-.84A53.52,53.52,0,0,1,297.84,37Z"/><path class="cls-24" d="M293.18,43.42a130.44,130.44,0,0,1,19.56,2.75c2.33.48,4.69.86,7,1.28v5c-3.82.41-7.3-1.38-11-1.73-6.56-.63-13-2.44-19.63-2.31A22.76,22.76,0,0,1,293.18,43.42Z"/><path class="cls-1" d="M307.33,22.48,319.78,0V24a2,2,0,0,1-1.34.59C314.66,24.29,310.87,24,307.33,22.48Z"/><path class="cls-27" d="M319.78,82.91c-4.51-.16-8.73-1.81-13.1-2.67a218.92,218.92,0,0,0-23.1-2.92c-5.21-.45-10.4-.29-15.59-.41-2.17,0-4.25.69-6.44.56a5.34,5.34,0,0,1-3.22-1,5.74,5.74,0,0,1,2.4-1.54c4.49-.22,9-.51,13.47-.64a15.73,15.73,0,0,1,5.41.49,10.61,10.61,0,0,0,4,.39c5-.18,9.78.84,14.66,1.56,3.9.57,7.81,1.24,11.72,1.8,3.31.47,6.39,2.12,9.78,2.43Z"/><path class="cls-19" d="M307.33,22.48c3.31,0,6.48,1,9.72,1.44a24.83,24.83,0,0,0,2.73.06v7a5.32,5.32,0,0,1-4.27-.07c-3-1.3-6.37-.47-9.29-2.07-.75-.42-1.88.76-2.91.15Z"/><path class="cls-29" d="M254.32,187.8c.21-.25.38-.68.62-.73,3.37-.61,6.62-2.24,9.92-2.4,2.83-.14,5.86.15,8.59-.33,2.53-.45,4.6,1,7.24.4,2.39-.57,5.33.94,7.95,1.79,1.22.39,3.08-.9,3.66,1.27Z"/></g></g></g></svg>