<svg xmlns="http://www.w3.org/2000/svg" viewBox="0 0 134.14 286.98"><defs><style>.cls-1{fill:#99e2df;}.cls-2{fill:#85dcd9;}.cls-3{fill:#77d9d5;}.cls-4{fill:#93e0dd;}.cls-5{fill:#82dcd8;}.cls-6{fill:#96e1de;}.cls-7{fill:#72d7d4;}.cls-8{fill:#8fdfdc;}.cls-9{fill:#7adad6;}.cls-10{fill:#80dbd7;}.cls-11{fill:#89ddda;}.cls-12{fill:#6fd8d3;}.cls-13{fill:#6bd7d2;}.cls-14{fill:#7ddad7;}.cls-15{fill:#64d5d0;}.cls-16{fill:#8cdedb;}.cls-17{fill:#61d4cf;}.cls-18{fill:#69d6d1;}.cls-19{fill:#5dd4cf;}.cls-20{fill:#66d6d1;}.cls-21{fill:#5ad3ce;}.cls-22{fill:#7cdad7;}.cls-23{fill:#56d2cd;}.cls-24{fill:#53d1cc;}.cls-25{fill:#67d6d1;}.cls-26{fill:#8ddedb;}</style></defs><g id="Layer_2" data-name="Layer 2"><g id="Layer_1-2" data-name="Layer 1"><g id="_4xjTl7.tif" data-name="4xjTl7.tif"><path class="cls-1" d="M.34,0A309.2,309.2,0,0,1,54,30,263.37,263.37,0,0,1,83.21,53.54,181.93,181.93,0,0,1,115,92c7.71,12.66,13.41,26.18,15.42,40.93,1.55,11.38,1.46,22.81-2.28,33.92-2.19,0-2.58-2-3.15-3.35a115.15,115.15,0,0,0-6.69-12.8,207.49,207.49,0,0,0-12.43-19.24c-5.57-7.56-11.23-15-17.5-22S75.66,96.11,68.84,89.89A249,249,0,0,0,47.48,72.73C41.24,68.19,34.59,64.24,28,60.28,20.36,55.75,12.4,52,4.54,48c-1.4-.7-3.1-.78-4.2-2.08Z"/><path class="cls-2" d="M113.17,286.64h-9.48c.11-3.88.15-7.76.23-11.65a108.85,108.85,0,0,0-.54-17.15c-.95-6.8-1.9-13.63-2.92-20.43s-3.47-13-4.77-19.55a82.35,82.35,0,0,0-2.87-9.49c-1.29-4-3-7.75-4.58-11.54-1.84-4.41-3.89-8.76-6.11-13q-4.55-8.7-9.51-17.17a69.65,69.65,0,0,0-6.42-9.1,37.92,37.92,0,0,1-4.46-6.25c-1.12-2.15-3-3.83-4.58-5.56-5.26-5.63-10.11-11.64-16-16.75-5.36-4.68-10.44-9.62-16.34-13.68-4.16-2.85-8-6.12-12.3-8.84-3.43-2.17-6.85-4.35-10.41-6.29A6.49,6.49,0,0,1,.34,98.88v-10c1.25-1,2.36-.21,3.48.29,4,1.77,7.45,4.38,11.14,6.63a176.43,176.43,0,0,1,22.91,16.34,200.94,200.94,0,0,1,16.78,15.6c4.31,4.61,8.81,9.06,12.7,14,6.19,7.92,12.52,15.75,17,24.87.77,1.58,2.12,2.75,3,4.29a236.9,236.9,0,0,1,14.38,31.72c2.42,6.49,4.16,13.15,6.19,19.73a126.34,126.34,0,0,1,4.46,23.22c.47,4.12,1.14,8.26,1.36,12.37.24,4.79,1,9.58.71,14.4-.23,4.05.46,8.14-.52,12.17C113.7,285.28,113.75,286.06,113.17,286.64Z"/><path class="cls-3" d="M79.72,286.64H69.24a3.23,3.23,0,0,1-.53-2.83A104.62,104.62,0,0,0,68.43,261c-.47-4.46-.32-9-1.32-13.38C65.46,240.29,64,233,61.85,225.79a142.12,142.12,0,0,0-8.37-21.56c-4-8.36-8.38-16.54-14.06-24-3.05-4-5.92-8.2-9.18-12.08A179.23,179.23,0,0,0,16,153.18c-3.57-3.37-7.31-6.5-11.08-9.61-1.52-1.26-3.49-2-4.6-3.74V127.34c1.68-.38,2.85.68,4,1.51a187.39,187.39,0,0,1,23,19A174.93,174.93,0,0,1,55.86,184a175.23,175.23,0,0,1,13.33,27.55,150.12,150.12,0,0,1,8.71,32.91c.73,5.34,2,10.62,2.17,16,.2,6.12,1.21,12.23.4,18.37a46.12,46.12,0,0,0-.09,5C80.35,284.79,80.49,285.82,79.72,286.64Z"/><path class="cls-4" d="M124.22,177.81l-5.55,13c-1.21-1.28-1.27-3-2-4.54-3.49-7.55-6.86-15.17-10.85-22.45-2.87-5.23-6.07-10.3-9.27-15.35-5-7.82-10.83-14.92-16.56-22.14s-12.35-13.68-19-20c-5.42-5.16-11.24-9.84-17.1-14.5-8.09-6.44-16.93-11.69-25.72-17A164.52,164.52,0,0,0,2.53,66.46C1.71,66.07.8,65.82.34,64.92V54.43a2.7,2.7,0,0,1,2.4,0,125,125,0,0,1,13.06,6.5c3.4,1.87,6.82,3.72,10.21,5.6a80.35,80.35,0,0,1,9.91,6.13c3.2,2.46,6.85,4.26,10.06,6.65,5,3.71,10,7.3,14.51,11.59,6.52,6.25,13.74,11.76,19.62,18.64,3.49,4.1,6.85,8.34,10.49,12.3s6.39,8.42,9.82,12.47c3.31,3.89,5.84,8.58,8.49,13.07,2.1,3.56,4.41,7.06,6.31,10.68,2.52,4.8,5.46,9.44,7.35,14.59C123.19,174.36,124.29,175.89,124.22,177.81Z"/><path class="cls-5" d="M.34,98.88c3.23.84,5.7,3.06,8.54,4.62a71.21,71.21,0,0,1,9,5.84c4.8,3.66,9.92,6.9,14.5,10.89,2,1.73,3.76,3.79,6.28,5,1.36.65,2,2.61,3.25,3.66,5.16,4.37,9.49,9.5,14,14.55,1.66,1.89,3.21,3.91,5,5.69s2.88,4.56,4.75,6.55c2.79,3,4.64,6.6,7.11,9.8,1.57,2,2.5,4.67,3.94,6.94a155.73,155.73,0,0,1,7.42,13.75c1.79,3.57,3.81,7.15,4.93,11.07a13.84,13.84,0,0,0,.88,2.32,80.75,80.75,0,0,1,5.59,15.69c1.44,5.75,3.31,11.39,4.51,17.21.93,4.5,1.71,9,2.34,13.55.51,3.65,1.22,7.37,1.6,11a92.21,92.21,0,0,1,.68,12.69c-.12,3.46-.05,6.92-.07,10.38a17.66,17.66,0,0,1-.86,6.54h-6a1.74,1.74,0,0,1-.48-1.37c.91-12.56,0-25-1.54-37.51a185,185,0,0,0-8.42-35.59,186.7,186.7,0,0,0-18.84-40,219.45,219.45,0,0,0-17.81-24,189.61,189.61,0,0,0-25.54-24.75A155.91,155.91,0,0,0,3.14,108.26a6.33,6.33,0,0,1-2.8-2.39Z"/><path class="cls-6" d="M124.22,177.81a18.68,18.68,0,0,1-2.19-4.66c-1.69-4-3.94-7.61-5.72-11.47-1.65-3.59-4-6.69-5.72-10.22a43.52,43.52,0,0,0-4.82-7.92c-1.08-1.38-1.57-3-2.57-4.39-3.43-4.84-7.15-9.47-10.72-14.18-3.36-4.44-7.38-8.5-11-12.78s-8-8.22-11.81-12.57a18.85,18.85,0,0,0-4-3.09C62,94.19,59.72,90.38,56.15,88c-2.59-1.72-4.4-4.5-7.61-5.43-1.16-.34-1.32-2-2.53-2.61-2.91-1.5-6.1-3-8.38-5.07-2.91-2.7-6.36-4.32-9.56-6.32a107.26,107.26,0,0,0-11-6.09,98.72,98.72,0,0,1-8.85-5.2C5.85,55.87,3,55.35.34,54.43V45.94c6,1.92,11.41,5.19,17.11,7.8,4.36,2,8.31,4.69,12.45,7q7.08,4,13.82,8.67c5,3.46,10,7,14.74,10.83q6.69,5.33,13,11.12a258.49,258.49,0,0,1,20.36,20.85c2.46,2.83,4.56,6,7,8.8a140.78,140.78,0,0,1,11.46,15.41c3.69,5.62,7.67,11.14,10.48,17.36,1.82,4,4,7.91,6.12,11.84.25.47.84.76,1.28,1.14A42.32,42.32,0,0,1,124.22,177.81Z"/><path class="cls-7" d="M.34,139.83a30.37,30.37,0,0,1,6.48,4.35,214.85,214.85,0,0,1,16.74,15.64c4.37,4.66,8.56,9.42,12.43,14.46a170.32,170.32,0,0,1,11.76,17.38c4.57,7.78,8.07,16.07,11.69,24.28,2,4.42,3,9.24,4.27,13.94,1.37,5.18,2.56,10.4,3.67,15.64a57.65,57.65,0,0,1,1.26,8.75c.5,8.73,1.6,17.43,1.14,26.21-.11,2.07-.86,4.07-.54,6.16h-8a2.48,2.48,0,0,1-.81-2.25c1.57-8.52.45-17-.18-25.53A136.27,136.27,0,0,0,55,231.29a138.3,138.3,0,0,0-6.7-19.19A163.73,163.73,0,0,0,38.2,192.49c-3-4.79-6.43-9.26-9.43-14-1.87-3-4.67-5.15-6.88-7.87-5.13-6.32-11.42-11.53-17.24-17.2-1.36-1.32-3.62-1.5-4.31-3.57Z"/><path class="cls-8" d="M.34,64.92A162,162,0,0,1,23,76.85c5.49,3.35,11,6.67,16.27,10.39,4.64,3.29,8.86,7.16,13.35,10.67A164.71,164.71,0,0,1,67.9,112a167.65,167.65,0,0,1,17.42,20c2.93,4.09,6.27,7.89,9.19,12,2.49,3.49,4.71,7.19,6.92,10.87A304.68,304.68,0,0,1,117,185.35a16.67,16.67,0,0,1,1.72,5.42q-1.74,5.25-3.49,10.51c-2.16-2.09-2.31-5.09-3.35-7.66a258,258,0,0,0-21.28-41.1,210.23,210.23,0,0,0-32.36-39.05A214.86,214.86,0,0,0,15.9,81.63c-4.46-2.54-9-4.94-13.67-7.19A3.86,3.86,0,0,1,.34,72.91Z"/><path class="cls-9" d="M79.72,286.64c.15-3.39.21-6.79.35-10.17.23-5.35-.56-10.74-.68-16.11-.15-6.74-1.91-13.23-2.76-19.86-.57-4.41-2.07-8.68-3-13s-2.74-8.15-4-12.23a127.74,127.74,0,0,0-7.17-17.38A147.3,147.3,0,0,0,47.4,172.21c-4.1-5.51-8.36-10.88-12.93-16-8.1-9.15-17.41-16.91-27-24.34-2.19-1.7-4.39-3.56-7.11-4.5v-7.49c1.77-1,3.09.23,4.26,1.13,3,2.33,6.3,4.3,9.29,6.67,4.42,3.51,9,6.86,13.11,10.71a210.1,210.1,0,0,1,25.32,28.1A107.29,107.29,0,0,1,63.14,184c1.25,2.59,3,5,4.38,7.51a145.77,145.77,0,0,1,7.43,17,172.3,172.3,0,0,1,7.47,23.72A190.4,190.4,0,0,1,86,252.06,105.25,105.25,0,0,1,87,268.93a90.91,90.91,0,0,0,.06,11.67,9.93,9.93,0,0,1-.87,6Z"/><path class="cls-10" d="M.34,105.87a194.06,194.06,0,0,1,29.44,20.59c4.66,4,9.23,8.06,13.49,12.39a197.72,197.72,0,0,1,17.35,20.69,179.2,179.2,0,0,1,15,23.68,175.81,175.81,0,0,1,9.79,21.51,226.93,226.93,0,0,1,8.92,30.59c1.38,6.55,2,13.2,2.91,19.82,1.26,9.25.94,18.54,1,27.83a28.78,28.78,0,0,1-.47,3.67H92.2c-.54-2.35-.17-4.76-.21-7.13-.07-3.55-.22-7.13,0-10.69.3-4.69-.66-9.28-.9-13.92A102.74,102.74,0,0,0,87.76,234c-2.1-8-4.09-16-7.1-23.76-2.55-6.57-5.14-13.13-8.06-19.53A105.18,105.18,0,0,0,65.4,178c-3.17-5-5.86-10.27-9.65-14.82-4.13-5-7.87-10.23-12.35-15A181.88,181.88,0,0,0,29.46,134.4c-5.17-4.39-10.13-9.08-16-12.6-1.88-1.12-3.27-3-5.19-4.19-2.6-1.65-5.39-3-7.9-4.75Z"/><path class="cls-11" d="M113.17,286.64c.91-5.14.4-10.36.69-15.54.15-2.52-.65-5.08-.64-7.62,0-6.87-1.33-13.6-2-20.4a100.4,100.4,0,0,0-3.5-18.44c-2.08-7.29-3.89-14.68-6.74-21.75s-5.2-14.66-9-21.42c-2.59-4.58-4.77-9.35-7.7-13.8-2.74-4.16-5.25-8.59-7.89-12.88-1.77-2.87-4.08-5.41-6.07-8.15a135.82,135.82,0,0,0-13-15.3c-3.23-3.29-6.36-6.7-9.83-9.78-3.71-3.29-7.31-6.69-11.14-9.83A172.13,172.13,0,0,0,17,97.94C12.48,95.18,8.2,92,3.42,89.67a5.47,5.47,0,0,0-3.08-.78V84.4c2.35-.38,4.05,1.2,5.8,2.22a263.5,263.5,0,0,1,27.77,18c5,3.82,9.79,8,14.45,12.22,3.67,3.36,7.1,7,10.61,10.5a194.27,194.27,0,0,1,17.62,20.94,201.07,201.07,0,0,1,24.4,43,196,196,0,0,1,9.93,29.75,12.89,12.89,0,0,0,.71,2.64l0,1a13,13,0,0,0,0,4.94l.09,3.46c.55,1.13-.1,2.39.41,3.53l.09,1.46c.51.79-.07,1.75.42,2.54.95,7.75,3.78,14.93,6.8,22,1,2.35,2.16,4.63,3.24,6.95a33,33,0,0,1,.1,10c-.26,2.31.48,4.85-1.1,7Z"/><path class="cls-12" d="M.34,149.81c4.88,2.56,8.18,7,12.32,10.39,5.92,4.87,10.6,10.85,15.51,16.55a85,85,0,0,1,9.93,14.4c1.53,2.77,3.57,5.36,4.87,8.22s2.79,5.88,4.29,8.75c2,3.71,3.05,7.74,4.89,11.5,1.37,2.78,2,6,2.93,9.08,1.48,4.88,2.61,9.87,3.71,14.87,1.41,6.35,1.74,12.81,2.49,19.24.69,5.93.36,11.87.52,17.81.05,2.06-1.44,3.93-.55,6h-6a1.5,1.5,0,0,1-.46-1.37c.62-3,.16-6.11.26-9.17a112.79,112.79,0,0,0-.63-16.83,175.23,175.23,0,0,0-4-22.49c-1.75-6.88-3.58-13.84-6.87-20.25-1.56-3-2-6.51-3.94-9.41-3-4.51-5-9.62-8.1-14-4.6-6.49-8.93-13.16-14.53-19-4.43-4.59-8.94-9.09-13.31-13.74-1-1-2.35-1.58-3.35-2.59Z"/><path class="cls-13" d="M.34,157.8c3.11.1,4.12,3,6.19,4.58a51,51,0,0,1,7.72,7.68c2.92,3.34,6.3,6.29,8.84,10,3.44,5,7.49,9.67,10.36,15.07,3.51,6.6,7.4,12.94,10.31,19.94,2.81,6.76,4.71,13.79,7.21,20.62,1.12,3,1.32,6.6,2,9.91.65,3.16.8,6.38,1.75,9.54.57,1.88.46,4.29.61,6.46.26,3.74.37,7.48.38,11.21a104.79,104.79,0,0,1-.46,13.84H48.77a2.31,2.31,0,0,1-.45-1.87,147.19,147.19,0,0,0-3.26-42.57,144,144,0,0,0-16.75-41.93,154.18,154.18,0,0,0-23.88-30.2c-1.39-1.4-3.29-2.31-4.09-4.28Z"/><path class="cls-11" d="M111.63,223.71a6.09,6.09,0,0,1-1.44-2.85,196.14,196.14,0,0,0-9.71-29.21,202.74,202.74,0,0,0-13.32-26.3,200.15,200.15,0,0,0-13.61-20.14A126.35,126.35,0,0,0,61.63,131c-4.27-4.17-8.2-8.66-12.64-12.67a215.69,215.69,0,0,0-22.35-18.09c-6.82-4.7-13.93-8.93-21-13.23C4,86,2.11,85.25.34,84.4v-5c.78-.62,1.41,0,2.05.28a215.48,215.48,0,0,1,45.08,30.15,219.2,219.2,0,0,1,22.86,23.25c4.67,5.54,9,11.33,13.17,17.22a193.88,193.88,0,0,1,13.63,22.6c3.79,7.32,7.15,14.81,10.24,22.43,2,4.84,3.59,9.82,5.27,14.77a3.11,3.11,0,0,1,0,2.65Z"/><path class="cls-14" d="M.34,112.86c2.26-.27,3.6,1.61,5.28,2.53,2.66,1.46,5.48,2.81,7.45,5.49.89,1.21,2.91,1.61,4.28,2.7,6,4.73,12.06,9.4,17.43,14.82a114.51,114.51,0,0,1,8.35,8.69c2.53,3.14,5.57,5.91,8,9.17,4.51,5.94,9.3,11.66,12.77,18.34,1.51,2.91,3.56,5.53,5.2,8.39s3.08,5.67,4.44,8.59c1.65,3.54,3.18,7.15,4.67,10.76,1,2.33,1.53,4.85,2.69,7.06,2.18,4.16,3,8.74,4.31,13.14.69,2.23,1.81,4.36,1.81,6.88,0,2.21,1.51,4.16,1.72,6.52a65.72,65.72,0,0,0,2,9.4c.49,2,.22,4,.53,6A127.11,127.11,0,0,1,92.66,266c.2,5.75,0,11.51.07,17.26a13.94,13.94,0,0,1-.53,3.42H88.71c-.82-.9-.64-2-.65-3.08,0-5.24,0-10.48,0-15.71a172.34,172.34,0,0,0-3.77-31.36,167.26,167.26,0,0,0-8.38-28.66A190.91,190.91,0,0,0,57.3,172.07,197.8,197.8,0,0,0,33,142.77a151.64,151.64,0,0,0-17.78-15.19,159.78,159.78,0,0,0-13.72-9.45,3.74,3.74,0,0,1-1.17-1.27Z"/><path class="cls-15" d="M38.28,286.64H31.79c.26-4,.79-8.11.74-12.13A126.14,126.14,0,0,0,30.14,250a158.59,158.59,0,0,0-6-21.06C20.18,218.18,14.34,208.51,8,199c-2.34-3.49-5.41-6.29-7.66-9.76v-9c1.21-.73,1.82.32,2.53.92,2.49,2.12,4.2,4.92,6.33,7.35,4.84,5.5,8.6,11.78,12.67,17.81,2.11,3.13,3.24,6.87,5,10.21a129.12,129.12,0,0,1,5.24,12.62c2.35,6,3.71,12.19,5.13,18.42,1.69,7.41,2.15,14.91,2.49,22.42.2,4.37-.12,8.77.09,13.14A3.78,3.78,0,0,1,38.28,286.64Z"/><path class="cls-16" d="M.34,72.91c8.21,4,16.43,8,23.94,13.08C32.39,91.53,40.61,96.87,48,103.56c6.18,5.65,12.52,11.11,18.34,17.13a213.73,213.73,0,0,1,15.45,18.12,239.4,239.4,0,0,1,18.43,28.78c5.13,9.12,9.19,18.69,13.26,28.28.74,1.73,1.18,3.6,1.75,5.41a28.58,28.58,0,0,1-1.53,6.45c-1,.09-1-.75-1.17-1.32-1.27-4-2.75-7.85-4-11.8-1.43-4.33-3.7-8.34-5.52-12.54-4.06-9.41-9.55-18-14.92-26.73a198.68,198.68,0,0,0-13.9-19.44,173.05,173.05,0,0,0-16.45-18c-4-3.83-8-7.77-12.32-11.26q-9.76-7.9-20.18-15c-5.72-3.86-11.92-6.9-17.62-10.77-2.26-1.53-5-2.17-7.18-3.95Z"/><path class="cls-17" d="M.34,189.27a22.71,22.71,0,0,1,6.25,6.26c3.82,5.45,7.41,11.1,10.73,16.88A119.72,119.72,0,0,1,25,229.53a128.34,128.34,0,0,1,7.09,28.26,93.25,93.25,0,0,1,.6,24.19c-.18,1.56.68,3.37-.93,4.66H26.3c-1-1.32-.78-2.88-.58-4.31,1.14-8.32.15-16.57-.82-24.8a105.48,105.48,0,0,0-4.57-20.9,106.76,106.76,0,0,0-7.48-17.86c-2.64-4.81-5.34-9.56-8.31-14.17-1.3-2-3.1-3.68-4.2-5.85Z"/><path class="cls-18" d="M.34,165.79c5,4,9.25,8.7,13.47,13.51A129.51,129.51,0,0,1,26.1,195.4a137.6,137.6,0,0,1,11.23,21A150.56,150.56,0,0,1,44.26,236a192.08,192.08,0,0,1,4,20.62c1.15,8.09.9,16.21,1,24.32,0,1.94-.47,3.78-.53,5.67h-5c.32-5.11.2-10.23.3-15.35.13-6.67-.86-13.19-1.63-19.76-.81-6.81-3.15-13.21-4.93-19.77-2.69-9.86-7.19-18.89-12.1-27.75A128.63,128.63,0,0,0,3.6,175.71a39,39,0,0,1-3.26-3.42Z"/><path class="cls-19" d="M.34,198.75c4.27,3.39,6.54,8.26,9.27,12.75a114.68,114.68,0,0,1,8.74,17.71,125,125,0,0,1,6.49,23.5A166.39,166.39,0,0,1,27,275.3c.16,3.77-.88,7.53-.71,11.34h-6a2.81,2.81,0,0,1-.86-2.93c1.07-6.78.57-13.51-.1-20.33a119.82,119.82,0,0,0-4.74-23.63A103.21,103.21,0,0,0,1.74,212.08a23,23,0,0,0-1.4-2.34Z"/><path class="cls-20" d="M38.28,286.64c1-2,.74-3.9.55-6.06a42.34,42.34,0,0,1,.29-6.2c.35-5-.41-10-.61-15-.14-3.86-1.16-7.69-1.85-11.52a129.62,129.62,0,0,0-9.11-28.53c-1.12-2.59-2.74-5.3-3.81-7.87-1.81-4.36-5-7.65-7.11-11.68-2.19-4.2-5.51-7.5-8.29-11.23a44.08,44.08,0,0,0-6.14-7.16c-.55-.49-1-1.13-1.86-1.11v-6.5c1.11-.3,1.69.55,2.27,1.19,7.52,8.08,15.19,16.1,20.61,25.8,5.59,10,11,20.09,14.17,31.18a161.91,161.91,0,0,1,6.26,32.43,208.47,208.47,0,0,1,0,21.36,1.53,1.53,0,0,1-.37.9Z"/><path class="cls-21" d="M.34,209.74c2.05,1.26,3,3.38,4.19,5.34a105.68,105.68,0,0,1,9.76,21.4c2.77,8.64,5,17.37,5.69,26.54.32,4.52.75,9,.86,13.59a31.21,31.21,0,0,1-.66,6.91,7.25,7.25,0,0,0,.13,3.12H13.82c-.8-.93-.6-2.05-.51-3.11a110.08,110.08,0,0,0-4-40.22,88.33,88.33,0,0,0-9-21.58Z"/><path class="cls-22" d="M.34,116.86c5.3,2.62,9.91,6.24,14.63,9.75,4.12,3.07,8.19,6.18,12,9.59,3.45,3.07,6.81,6.27,10,9.65,4.22,4.52,8.31,9.16,12.22,14,3.3,4.06,6.21,8.37,9.16,12.66a174.87,174.87,0,0,1,14.33,26.09,190.7,190.7,0,0,1,10.11,28.5,198.22,198.22,0,0,1,4.89,25.51c1.61,11.29,1,22.7,1.06,34.06h-2.5c.68-4.15.06-8.34.21-12.52a139,139,0,0,0-.77-18.9,210.36,210.36,0,0,0-5.58-29.89c-.8-3.22-2.18-6.39-3.28-9.56-1.24-3.58-2.37-7.21-3.91-10.67-3-6.86-5.75-13.84-9.93-20.24-2.09-3.2-4-6.77-5.82-10.25-2-3.82-4.9-7.19-7.58-10.62a190.25,190.25,0,0,0-14.43-16.67A163.88,163.88,0,0,0,17.18,131c-3.73-2.8-7.42-5.62-11.36-8.15-1.78-1.15-3.19-2.82-5.48-3Z"/><path class="cls-16" d="M.34,76.9c2.3,0,4.11,1.5,5.82,2.57,5.95,3.7,12.21,6.86,18,10.84,3.68,2.52,7.46,4.93,11,7.61A176.2,176.2,0,0,1,50,109.82c6.07,5.73,12.26,11.34,17.67,17.73,3.37,4,6.78,7.89,10,12A228.42,228.42,0,0,1,92.38,161a195,195,0,0,1,13.93,27c2.75,6.48,4.67,13.22,7.34,19.7a15.92,15.92,0,0,1-1,5,98.76,98.76,0,0,0-3.9-11.72c-1.61-4.42-3.24-8.85-5.17-13.14-2.07-4.58-4-9.19-6.5-13.62s-4.85-8.65-7.3-13c-4.18-7.36-9.32-14-14.3-20.79a157.9,157.9,0,0,0-17-19.47A234.62,234.62,0,0,0,33.22,99.22C27,94.68,20.36,90.76,13.92,86.55c-4.27-2.78-9-4.79-13.58-7.15Z"/><path class="cls-23" d="M.34,221.73c2.44,1.8,3.4,4.63,4.54,7.2,1.7,3.84,3,7.88,4.39,11.84a94.78,94.78,0,0,1,3.51,14.66,116.61,116.61,0,0,1,1.52,24.34c-.05,2.29-.32,4.58-.48,6.87H7.33c-.85-.67-.72-1.59-.66-2.51A122.31,122.31,0,0,0,6.47,263c-.73-6.65-1.48-13.36-4.19-19.62-.93-2.14-.87-4.56-1.94-6.66Z"/><path class="cls-24" d="M.34,236.71c1.22.49,1.19,1.69,1.43,2.68,1.18,4.74,3.32,9.21,4.07,14.06a132.25,132.25,0,0,1,1.35,31.49,9.75,9.75,0,0,0,.14,1.7c-2.33,0-5.57.91-6.74-.25S.34,282,.34,279.65Z"/><path class="cls-25" d="M43.28,286.64c-.27-4.29-.05-8.58-.07-12.87a100.9,100.9,0,0,0-1.58-19.66c-1.09-5.36-1.86-10.8-3.31-16.1-1.14-4.16-2.51-8.25-3.76-12.37-2.63-8.69-7.46-16.32-11.67-24.18A77,77,0,0,0,9.07,183.09c-3-3-5.44-6.56-8.73-9.31v-1.49c3.51,1.88,5.92,5,8.49,7.89a135.44,135.44,0,0,1,11.58,14.45c3.06,4.53,5.64,9.35,8.34,14.1,3.39,6,5.76,12.42,8.34,18.75,1.29,3.17,1.78,6.65,2.83,9.93a94.85,94.85,0,0,1,3.7,17.12,142.67,142.67,0,0,1,1.09,24.1c-.1,2.69.55,5.48-.94,8Z"/><path class="cls-26" d="M121.66,286.64q.51-8.49,1-17a198.74,198.74,0,0,0,11.48,17Z"/><path class="cls-11" d="M111.61,229.69a6.07,6.07,0,0,1,0-4.94Z"/><path class="cls-11" d="M112.11,236.68c-.84-1.1-.27-2.36-.41-3.53C112.45,234.25,112.08,235.49,112.11,236.68Z"/><path class="cls-11" d="M112.62,240.68c-.76-.74-.34-1.68-.42-2.54C112.87,238.9,112.61,239.81,112.62,240.68Z"/></g></g></g></svg>