<svg xmlns="http://www.w3.org/2000/svg" viewBox="0 0 188.02 261.01"><defs><style>.cls-1{fill:#99e2df;}.cls-2{fill:#77d9d5;}.cls-3{fill:#6bd7d2;}.cls-4{fill:#72d7d4;}.cls-5{fill:#7fdbd7;}.cls-6{fill:#84dcd9;}.cls-7{fill:#7adad6;}.cls-8{fill:#67d6d1;}.cls-9{fill:#6fd8d3;}.cls-10{fill:#93e0dd;}.cls-11{fill:#53d1cc;}.cls-12{fill:#64d5d0;}.cls-13{fill:#60d4cf;}.cls-14{fill:#89ddda;}.cls-15{fill:#5dd4cf;}.cls-16{fill:#57d2cd;}.cls-17{fill:#8fdfdc;}.cls-18{fill:#5ad3ce;}.cls-19{fill:#96e1de;}.cls-20{fill:#4ed0cb;}.cls-21{fill:#4acfca;}.cls-22{fill:#46cfc9;}.cls-23{fill:#85dcd9;}.cls-24{fill:#8cdedb;}.cls-25{fill:#82dcd8;}.cls-26{fill:#89deda;}.cls-27{fill:#7ddad7;}.cls-28{fill:#42cec9;}.cls-29{fill:#3fcec8;}</style></defs><g id="Layer_2" data-name="Layer 2"><g id="Layer_1-2" data-name="Layer 1"><g id="ATeSip.tif"><path class="cls-1" d="M187.8,261a245.27,245.27,0,0,1-42.63-23.51c-16.38-11.41-30.54-24.34-41.34-39.59A90,90,0,0,1,92,175.83c1.1-.69,1.84,0,2.62.48,4.87,3.06,9.21,6.62,14.15,9.63a296.44,296.44,0,0,0,30.16,16.18,188.31,188.31,0,0,0,18.55,7.44c7.67,2.57,15.16,5.56,23.33,7.1a37.89,37.89,0,0,1,7,2Z"/><path class="cls-2" d="M187.8,153v8.15c-1.21.62-2.25,0-3.27-.37a191.64,191.64,0,0,1-31.32-14.67,145.77,145.77,0,0,1-45.61-41.5A122.81,122.81,0,0,1,96.28,85.13a109.21,109.21,0,0,1-7.74-22.9,77.43,77.43,0,0,1-2.33-19c.17-5.76,0-11.53.19-17.3a34.82,34.82,0,0,1,.79-5c1.24-6.43,3-12.78,4.71-19.14a2.9,2.9,0,0,1,1-1.6h10c.94,1.75-.27,3.32-.79,4.88a120.11,120.11,0,0,0-4.45,19.35,79.54,79.54,0,0,0-1.07,16.23A113.78,113.78,0,0,0,101.26,69c4.16,13.46,11.11,25.89,20.34,37.56a135.91,135.91,0,0,0,24.34,23.58,178.25,178.25,0,0,0,16.3,10.62c6.28,3.79,13.35,6.26,19.93,9.49C184.05,151.17,186.59,151.17,187.8,153Z"/><path class="cls-3" d="M116.88.18h9c1,1,.32,2-.12,2.88-3.55,7.45-5.1,15.29-6.65,23.12a57.09,57.09,0,0,0-1,12.36c.08,3.71.68,7.41,1.1,11.11a82.69,82.69,0,0,0,3.52,16.16c4.23,13.07,11.41,25,21.12,36a111.37,111.37,0,0,0,20.3,17.8c4,2.75,8.2,5.29,12.48,7.77,3.61,2.08,7.59,3.63,11.17,5.71v7.74c-1,.91-1.92.41-2.9,0-3-1.27-5.72-3-8.77-4.25-4.43-1.78-8.17-4.38-12.29-6.52a47,47,0,0,1-7.47-5c-3.79-3-7.73-5.89-11.28-9.09a123.16,123.16,0,0,1-17.78-19.76,128.72,128.72,0,0,1-8.43-14.25,91.28,91.28,0,0,1-7-17.95A83.1,83.1,0,0,1,109,48.32a54.53,54.53,0,0,1-.65-7c.17-3.89-.57-7.81.5-11.69.59-2.15.5-4.41.79-6.62,1-7.67,3.87-14.92,6.59-22.22C116.32.48,116.62.34,116.88.18Z"/><path class="cls-4" d="M187.8,153c-7.24-3-14.67-5.8-21.64-9.21a102.42,102.42,0,0,1-11.4-6.68,174.59,174.59,0,0,1-14.49-10.62,119.15,119.15,0,0,1-16-15.66,136.68,136.68,0,0,1-14.93-21.26,126.84,126.84,0,0,1-6.72-14.47,94.23,94.23,0,0,1-5.27-20.57,97.42,97.42,0,0,1-1.43-18.18A98.43,98.43,0,0,1,98,18.46c.8-3.7,1.38-7.44,2.51-11.08.74-2.4,1.74-4.77,2.38-7.2h8c.72,2.13-.29,4.19-1.13,6a55,55,0,0,0-3.87,14.2c-.58,3.42-1.27,6.81-1.52,10.26-.2,2.84-.24,5.68-.3,8.52a103,103,0,0,0,1.83,18.6,56,56,0,0,0,2,7.75,120,120,0,0,0,5.89,15.74,106.58,106.58,0,0,0,10.05,16.78A131.06,131.06,0,0,0,135.45,112a131.17,131.17,0,0,0,16,14,210.49,210.49,0,0,0,23.39,14.46,62.31,62.31,0,0,0,8.52,3.33c1.73.64,3.6,1.14,4.45,2.74Z"/><path class="cls-5" d="M92.94,118a116.6,116.6,0,0,0,1.53-24c1.32.21,1.14,1.16,1,1.77-1,4.68,1.82,8.32,4.49,12.08A156.49,156.49,0,0,0,128.5,138a168.94,168.94,0,0,0,30.21,19.51,151.36,151.36,0,0,0,27.35,11.16,2.88,2.88,0,0,1,1.74,1.07v9.37c-.92.68-1.85.27-2.8,0-6.41-1.56-12.32-4-18.28-6.45a185.69,185.69,0,0,1-19.61-9.3,189.39,189.39,0,0,1-22.37-14.23,198.35,198.35,0,0,1-21.22-18.86C99.62,126.4,96.49,122.05,92.94,118Z"/><path class="cls-6" d="M92.94,118c2.17.53,2.8,2.28,3.77,3.56,4.62,6,10.23,11.42,15.89,16.78a134.33,134.33,0,0,0,18.82,14.92,195,195,0,0,0,20.29,11.89q10.31,5.12,21,9.47A112.79,112.79,0,0,0,186.08,179a9.74,9.74,0,0,0,1.72.13v9.37a2,2,0,0,1-1.88.06,223.39,223.39,0,0,1-23.13-8.09q-7.93-3.39-15.76-7a90.57,90.57,0,0,1-8.56-4.56,219,219,0,0,1-30.56-21.49,173.33,173.33,0,0,1-14.3-14.11,23.92,23.92,0,0,0-3.7-3.54c.84-3.43,1.67-6.85,2.52-10.27C92.56,119,92.77,118.48,92.94,118Z"/><path class="cls-7" d="M92.9.18c-.45,4.12-2.28,8-3.15,12-1,4.53-2.42,9-2.7,13.6A172.54,172.54,0,0,0,87,48.1a103.33,103.33,0,0,0,4.35,22.31A114.27,114.27,0,0,0,104.05,98.2a136.58,136.58,0,0,0,20.23,24.91,176.9,176.9,0,0,0,17.32,14.65c9.28,7,19.81,12.5,30.68,17.58a91.38,91.38,0,0,0,15.52,5.82v3.67c-1,.65-1.93.25-2.81-.07-6.32-2.24-12.73-4.33-18.48-7.52-2.14-1.19-4.54-2-6.74-3.08A162.75,162.75,0,0,1,125.9,131,147.44,147.44,0,0,1,103,105.19c-3.21-4.47-5.66-9.2-8.55-13.78-.49-.77,0-1.62-.5-2.37A79.33,79.33,0,0,0,81.81,57.82a6.11,6.11,0,0,1-.42-.94c-1-3.09-1.1-6.27-1.47-9.43a77.93,77.93,0,0,1-.32-14.4,113.43,113.43,0,0,1,2.55-18.36c.78-3.32,1.38-6.67,2.35-10,.48-1.61.89-3.29,2.41-4.55Z"/><path class="cls-8" d="M187.8,133c-3-.43-5.53-1.88-8-3.19-5-2.72-9.68-5.84-14.51-8.77a71,71,0,0,1-8.18-6.15c-2.44-2-5.13-3.78-7.28-6.05A173.69,173.69,0,0,1,134.55,91,96.87,96.87,0,0,1,124.36,72.2a75.09,75.09,0,0,1-5.09-17.67c-.85-5.3-1.81-10.6-1.82-15.93a78.36,78.36,0,0,1,3.1-22.06c1.4-4.85,2.45-9.77,4.91-14.38a3.65,3.65,0,0,0,.41-2h7c1.08,1.69-.38,3.1-1.14,4.36-2.14,3.53-2.47,7.42-3.81,11.09a50.3,50.3,0,0,0-2.62,12.13,94.08,94.08,0,0,0,.24,23.05c1,7.46,3.51,14.6,6.29,21.67a66.14,66.14,0,0,0,8.28,14.71,149,149,0,0,0,10.61,13.5,101.4,101.4,0,0,0,13.75,12c5.86,4.4,12.26,8.21,18.52,12.19,1.52,1,3.53,1.25,4.82,2.47Z"/><path class="cls-9" d="M187.8,146.49c-2.26-1.92-5.41-2.67-8.23-3.61-5.73-1.9-10.12-5.3-15.17-7.93a108.38,108.38,0,0,1-14.73-9.7,111.79,111.79,0,0,1-17.39-15.77c-3.07-3.5-5.92-7.15-8.69-10.83a104.84,104.84,0,0,1-10.19-16.8,75.25,75.25,0,0,1-4.33-11c-1.2-3.9-2.52-7.8-3.56-11.73a69,69,0,0,1-1.59-9.89,91,91,0,0,1-.39-16.5,61.51,61.51,0,0,1,.88-7.79c.36-1.81,1.08-3.69.91-5.67-.14-1.59.58-3.26,1.08-4.87.9-2.89,1.4-5.83,2.88-8.66a18.65,18.65,0,0,0,1.6-5.54h6c-.87,3.13-2.18,6.16-3.34,9.22-.82,2.17-1.27,4.42-2,6.62a46.34,46.34,0,0,0-1.73,9.84c-.26,2.6-1.18,5.26-.93,7.75.36,3.61-.35,7.2.31,10.8s.4,7.21,1.32,10.69c1.06,4.06,1.61,8.19,3,12.23,1.27,3.57,2.78,7.12,3.86,10.76.74,2.47,2.5,4.89,3.93,7.27,1.22,2,2.06,4.16,3.52,6.08,2.88,3.78,5.17,7.83,8.55,11.4,1.77,1.87,3.42,3.86,5.17,5.77,1.56,1.7,2.9,3.55,5,4.87,1,.65,1.51,1.67,2.41,2.45A149.67,149.67,0,0,0,160.21,127a119.43,119.43,0,0,0,17.5,9.62c2.65,1.19,5.16,2.63,7.79,3.89a3.38,3.38,0,0,0,2.3.28Z"/><path class="cls-10" d="M88.48,164A43.71,43.71,0,0,1,87,151.8a4.73,4.73,0,0,1,3.16,1.79,147.68,147.68,0,0,0,13.2,11.35,225.68,225.68,0,0,0,27.26,17.72,201.38,201.38,0,0,0,20.3,9.88,242.09,242.09,0,0,0,27.4,9.71,74.11,74.11,0,0,1,9.5,2.92v7.34a2.18,2.18,0,0,1-2.48.37,46.86,46.86,0,0,0-6.86-1.73c-8.12-1.94-15.65-5.06-23.38-7.72-5.52-1.89-11.19-3.82-16-6.93-1.47-.95-3.36-1.33-5-2.13-4.12-2-7.88-4.46-12-6.47a104.54,104.54,0,0,1-18.32-11.44c-3.38-2.62-6.56-5.44-10.47-7.58A13.6,13.6,0,0,1,88.48,164Z"/><path class="cls-11" d="M187.8,88.21V98.4c-3-.31-4.67-2.17-6.47-3.77-3.48-3.08-6.5-6.49-9.77-9.71-8.12-8-12.56-17.33-15.91-27a49.08,49.08,0,0,1-3-15c-.07-4.21-.37-8.45.54-12.73.69-3.23,1.14-6.52,2.06-9.74a61.09,61.09,0,0,1,7.37-17c.76-1.16.86-2.69,2.66-3.29h9.49c.77,1,0,1.84-.55,2.63a62.33,62.33,0,0,0-6.63,11.56c-2.27,5.49-4.53,11-4.64,16.92a4.46,4.46,0,0,1-.08,1.42c-1.62,4.32-.19,8.59.17,12.9a55.6,55.6,0,0,0,3.59,14.5A64.86,64.86,0,0,0,178.07,79,67.18,67.18,0,0,0,187.8,88.21Z"/><path class="cls-12" d="M187.8,127.33a17.53,17.53,0,0,1-7.35-3.43c-3.61-2.64-7.74-4.69-11.38-7.35-5.24-3.83-10.67-7.53-15.27-11.83a82.45,82.45,0,0,1-9-10.18c-2.35-3.07-4.67-6.18-6.82-9.32a37.41,37.41,0,0,1-4.32-7.69c-1-2.53-2.62-5-3.46-7.57-1-3.26-2.22-6.49-3.2-9.77a67,67,0,0,1-2.08-9.59c-.51-3.44-.62-6.9-.94-10.35-.36-3.74.41-7.42.62-11.12.15-2.71.78-5.51,1.2-8.24.54-3.61,2.73-6.87,2.75-10.6,0-1.74,1.59-3.46,2.3-5.23s1.9-3.11,2-4.88h6.5c.73.71.26,1.41,0,2.1-.83,2-1.75,4-2.58,6A76,76,0,0,0,131,37a72.9,72.9,0,0,0,1.18,16.43,79.73,79.73,0,0,0,5,16.17A113.5,113.5,0,0,0,145,84.33a87.78,87.78,0,0,0,7.1,9.31,108.4,108.4,0,0,0,13.56,13.26,115.17,115.17,0,0,0,19.05,12.73c1.1.59,2.39,1,3.09,2Z"/><path class="cls-13" d="M187.8,121.63a59.14,59.14,0,0,1-11.07-6c-4.52-3.05-9.22-6-13.09-9.58s-7.82-6.92-11-11c-2.11-2.7-4.63-5.2-6.58-8a99.58,99.58,0,0,1-10.88-20.4,70.39,70.39,0,0,1-3.55-12,66.82,66.82,0,0,1-1.4-14.09c.05-2.56,0-5.13.12-7.69A90,90,0,0,1,133.64,15c1.27-4.79,3.55-9.25,5.56-13.81a3.73,3.73,0,0,0,.16-1h6c.68.75.07,1.44-.23,2.11a115,115,0,0,0-6.66,18.54c-1.85,7-2.05,14.11-1.9,21.26a69.18,69.18,0,0,0,2.6,16.69,79.33,79.33,0,0,0,6.74,16.38,91.09,91.09,0,0,0,25.91,30.09A100.91,100.91,0,0,0,186.52,115a7.78,7.78,0,0,1,1.28,1Z"/><path class="cls-14" d="M89.91,129.78a4,4,0,0,1,2.9,1.7,145.91,145.91,0,0,0,25.06,23.23q8.91,6.56,18.67,12.38A167.62,167.62,0,0,0,155,176.57c8.85,3.92,17.83,7.73,27.45,10.34,1.81.49,3.59,1,5.38,1.55v6.12a2.72,2.72,0,0,1-2.57.1,243.19,243.19,0,0,1-33.94-12.27,222.78,222.78,0,0,1-31-17.35A188.47,188.47,0,0,1,89.69,139.2c-.51-.52-1.17-1-1.33-1.69A17.63,17.63,0,0,1,89.91,129.78Z"/><path class="cls-15" d="M187.8,115.92c-3.82-1-6.6-3.3-9.62-5.25a127.49,127.49,0,0,1-15-11.83A80.4,80.4,0,0,1,151.16,85a87.64,87.64,0,0,1-11-21,71.55,71.55,0,0,1-3.63-15.38,124.37,124.37,0,0,1-.61-12.47,58.81,58.81,0,0,1,2.58-17.84A135.13,135.13,0,0,1,145.35.18h6c.91.9.36,1.81,0,2.7-.94,2.39-2.45,4.59-3.37,7a83.58,83.58,0,0,0-5.56,22.87,73.09,73.09,0,0,0,3.25,27.58c3.42,11.17,9.52,21.26,17.84,30.45a94.35,94.35,0,0,0,22.25,18,10.62,10.62,0,0,1,2.05,1.48Z"/><path class="cls-16" d="M165.33.18c-3.14,5.24-6.27,10.45-8,16.2-1.1,3.54-2.56,7.09-3,10.68-.4,3.28-1.6,6.53-.86,10,.48,2.23-.3,4.58,0,6.92.47,3.51,1.26,7,2,10.43A41.48,41.48,0,0,0,159.07,65c2.45,4.76,4.68,9.56,8,14,3,4,6.82,7.63,10.36,11.32,2.89,3,5.94,6.19,10.33,8.06v6.52c-1.27.34-2-.4-2.82-1-14.22-9.53-25-21.19-31.63-35.2a74.7,74.7,0,0,1-5.88-18.47,73.37,73.37,0,0,1-1-11.5c-.08-3.75-.32-7.6.64-11.34,1-4,1.46-8.21,3.1-12.13a131,131,0,0,1,6.5-14.06A4.12,4.12,0,0,1,157.84.18Z"/><path class="cls-17" d="M187.8,205.17c-4.52-.36-8.43-2.28-12.67-3.37-8.47-2.17-16.42-5.42-24.26-8.67a178.71,178.71,0,0,1-18.76-9,244.6,244.6,0,0,1-26.77-17A154.72,154.72,0,0,1,89.86,154,31,31,0,0,0,87,151.8c.08-3-.54-6.05.4-9a85.66,85.66,0,0,1,7.23,6.71,183.23,183.23,0,0,0,20.88,16.85,188.34,188.34,0,0,0,19.69,12.13,239.67,239.67,0,0,0,34.9,15.25,168.3,168.3,0,0,0,16.16,4.78,3.67,3.67,0,0,1,1.56.58Z"/><path class="cls-18" d="M157.84.18c-2,4.21-4.07,8.4-6,12.64-1.48,3.29-2.11,6.78-3.1,10.18-1.4,4.85-1.28,9.78-1.78,14.67-.19,1.93.32,3.89.41,5.84a64,64,0,0,0,2.86,15.14,76.25,76.25,0,0,0,19,31.59c2.9,3,5.82,6,9.7,8.35a70.9,70.9,0,0,1,6.42,5,8.69,8.69,0,0,0,2.44,1.37v5.3c-3.15-.76-5.14-2.88-7.6-4.43a85.66,85.66,0,0,1-22.29-20.71,76.09,76.09,0,0,1-9.8-16.5A90.08,90.08,0,0,1,143.17,54a88.26,88.26,0,0,1-1.31-9,41.06,41.06,0,0,1-.5-8.5,85.7,85.7,0,0,1,3.51-19.76,95.92,95.92,0,0,1,5.75-13.79,4.52,4.52,0,0,0,.72-2.75Z"/><path class="cls-19" d="M88.48,164c1.81.16,1.52,1.73,2.51,2.48,2.08,1.59,4.31,3,6.5,4.49,1.41.95,2.61,2.45,3.8,3.16,2.8,1.66,4.72,4.09,7.66,5.49,3.4,1.62,6,4,9.41,5.7,2.86,1.45,5.91,2.71,8.56,4.35,3,1.82,5.88,3.93,9.1,5.12,3.74,1.39,6.79,3.58,10.54,4.87,6.55,2.26,13,4.82,19.57,6.94,2.28.73,4,2.23,6.57,2.52,4.45.5,8.39,2.36,12.68,3.32a6,6,0,0,0,2.42,0v6.11c-3.22.31-5.82-1.37-8.82-1.83-5.06-.78-9.68-2.72-14.45-4.24s-9.23-3.18-13.83-4.8c-5-1.75-9.58-4.13-14.35-6.22C130.43,199,125,195.77,119.19,193c-2.47-1.19-4.42-3.07-6.83-4.36-6.65-3.54-12.35-8-18.39-12.17a3,3,0,0,0-2-.65A52.13,52.13,0,0,1,88.48,164Z"/><path class="cls-20" d="M187.8,88.21a2.19,2.19,0,0,1-1.63-.36c-2.33-2.45-5.19-4.51-7.45-7a106.25,106.25,0,0,1-7.42-10,48.58,48.58,0,0,1-4.09-8c-1.66-3.6-2.54-7.36-3.92-11-.82-2.13-.38-4.38-.85-6.58-.37-1.71-.6-3.46-1-5.18a6.25,6.25,0,0,1,0-3.24,39.29,39.29,0,0,0,1.29-8.42c.35-3.47,2.16-6.63,2.78-9.91.74-3.88,3.52-6.95,4.61-10.62.53-1.77,2.33-3.36,3.45-5.09A9.3,9.3,0,0,0,174.82.18h8.49c.74,1.1-.36,1.79-.94,2.53C176.92,9.77,172.86,17.3,171,25.52a54.23,54.23,0,0,0,2.54,33.08,60.45,60.45,0,0,0,13.07,19.93c.47.48.68,1.09,1.21,1.53Z"/><path class="cls-7" d="M94,89a142.25,142.25,0,0,0,11.27,18.4,132.11,132.11,0,0,0,15.44,18.09,182.47,182.47,0,0,0,18.75,15.63A176,176,0,0,0,154.79,151c4.43,2.59,9.36,4.61,14,6.91,5.2,2.57,10.82,4.4,16.33,6.41a17.37,17.37,0,0,0,2.64.52v4.89a188.75,188.75,0,0,1-22.25-8.35c-7-3-13.35-6.75-19.76-10.41a110.2,110.2,0,0,1-15.34-10.52,191.31,191.31,0,0,1-16.84-15.38,185.81,185.81,0,0,1-16.78-20.73,10.7,10.7,0,0,1-2-6.42c-.06-1.33.46-2.7-.41-4C94.4,92.3,93.69,90.7,94,89Z"/><path class="cls-21" d="M187.8,80.06c-3-1.53-4.38-4.13-6.35-6.34a45.87,45.87,0,0,1-7.2-11.48,55.18,55.18,0,0,1-5-17.44,53.39,53.39,0,0,1,3.11-26A65.79,65.79,0,0,1,183,.94a2.48,2.48,0,0,0,.28-.76c1.5,0,3.58-.48,4.33.13s.16,2.31.16,3.54v.81a57.91,57.91,0,0,0-9.57,17.07,51.5,51.5,0,0,0-2.69,19.68,50.31,50.31,0,0,0,4.88,19c2,4.21,4.88,8,7.38,11.91Z"/><path class="cls-22" d="M187.8,72.31a3.81,3.81,0,0,1-1.66-1.45A51.82,51.82,0,0,1,185.86,6c.47-.59.77-1.41,1.94-1.38v9.78c-3.05,4.21-4.35,8.92-5.4,13.64-2.27,10.13-1,20.09,3,29.82.65,1.57,1.82,3,2.39,4.63Z"/><path class="cls-23" d="M63.93,37.26q-4.49-3.67-9-7.34c-.82-2.79.26-5.53.48-8.28.56-6.76,2.36-13.39,4.18-20A2.89,2.89,0,0,1,60.44.18h9c1,1.84-.08,3.63-.61,5.26-1.56,4.81-2.23,9.72-3.06,14.61a62.45,62.45,0,0,0-1,15.13A2.51,2.51,0,0,1,63.93,37.26Z"/><path class="cls-24" d="M88.36,137.51c2.51,1.52,4,3.78,6,5.64,5.38,5,10.79,9.86,16.64,14.47a216.74,216.74,0,0,0,20.51,14,149.52,149.52,0,0,0,13.21,7.18c6.34,3.06,12.78,6,19.52,8.46a198.12,198.12,0,0,0,19.15,6.21c1.48.38,2.73,1.36,4.44,1.15V197c-1.13.71-2.28.23-3.31-.1-8.82-2.78-17.7-5.48-26.22-8.84-3.79-1.5-7.44-3.31-11.09-5a214,214,0,0,1-27.31-15.27A186.39,186.39,0,0,1,91,144a15.2,15.2,0,0,0-1.81-1.68c-1.36-1-1.91-2.18-1.28-3.64C87.89,138.26,87.78,137.79,88.36,137.51Z"/><path class="cls-24" d="M87.89,138.7c-.21,1.32.5,2.24,1.59,3.22,3.12,2.79,5.92,5.82,9.09,8.56a194.85,194.85,0,0,0,15.83,12.73q6.41,4.47,13,8.72c3,1.95,6.35,3.64,9.61,5.36,3.75,2,7.53,3.91,11.39,5.73a174.93,174.93,0,0,0,24,9.5c4.72,1.43,9.41,2.93,14.13,4.38a6,6,0,0,0,1.22.12v2c-3.82-.09-7.15-1.59-10.62-2.59A194.74,194.74,0,0,1,156.31,189,219.3,219.3,0,0,1,125,173.16a185.49,185.49,0,0,1-17.21-11.9,170.78,170.78,0,0,1-18.68-16.43c-.62-.66-1.94-.94-1.69-2.07C87.58,141.41,87,140,87.89,138.7Z"/><path class="cls-25" d="M63.93,37.26c.48-2.93.06-5.89.29-8.85.34-4.26,1-8.46,1.64-12.67A78.77,78.77,0,0,1,68,5.75C68.56,3.91,69,2,69.43.18h6.49c.69.68.36,1.41.13,2.13a116.23,116.23,0,0,0-5.14,26.31c-.27,3.68-.9,7.41-.38,11.14a2.34,2.34,0,0,1-1.09,2.75Z"/><path class="cls-5" d="M69.44,42.51c1.17-2.34.24-4.79.35-7.17A125.8,125.8,0,0,1,74.74,4.51c.43-1.44.79-2.89,1.18-4.33h5c.83.9.3,1.83,0,2.71-2.51,6.82-3.5,13.85-4.7,20.87-.75,4.34-.61,8.72-1,13.07a21.57,21.57,0,0,0,.33,8.22,3.32,3.32,0,0,1-.59,3.29Z"/><path class="cls-26" d="M60.44.18a17.3,17.3,0,0,1-1,5,99,99,0,0,0-3.07,14.46C55.9,23,56,26.53,55,29.92a68.49,68.49,0,0,1-6.54-4.77c-1.28-1.11-.77-2.47-.58-3.68,1.08-6.84,2.41-13.64,4-20.4a1.89,1.89,0,0,1,.58-.89Z"/><path class="cls-27" d="M86.91.18c-2.47,5.9-3.51,12.05-4.77,18.17a108.54,108.54,0,0,0-2.08,18.06,76.63,76.63,0,0,0,.45,11.1c.34,3.11,1.1,6.22.88,9.37-1.66-2.19-3.31-4.39-5-6.58.58-4.87-.52-9.71-.32-14.59.18-4.47.78-8.9,1.23-13.34.7-7,2.65-13.9,4.79-20.72A3.06,3.06,0,0,1,82.91.18Z"/><path class="cls-28" d="M187.8,62.53c-2.59-2.45-3.36-5.54-4.49-8.51a38.49,38.49,0,0,1-2.6-15.09c.1-3.18-.14-6.37.74-9.6a78.15,78.15,0,0,1,3-10c.72-1.71.83-3.93,3.38-4.88v8.15c-1,.91-.27,2.11-.78,3.1-1.73,3.36-1,7.06-2.12,10.51a6.32,6.32,0,0,0,.14,2.62c.3,2.78,0,5.65.85,8.35.63,2.13,1.18,4.28,1.91,6.4Z"/><path class="cls-10" d="M37,18.07l-8-4.46c-1.69-2.09.22-4.06.36-6.08C29.51,5,30.64,2.66,31,.18h9.49c1,.94.73,2,.5,3.1-.85,4.05-2,8.06-2.5,12.17C38.35,16.41,38.34,17.53,37,18.07Z"/><path class="cls-17" d="M37,18.07c.83-3.83,1.74-7.65,2.44-11.5.39-2.12,1.46-4.18,1-6.39h7a1.94,1.94,0,0,1,.35,2.11,141.51,141.51,0,0,0-3.54,17.54,2.43,2.43,0,0,1-.84,2.05A54.81,54.81,0,0,1,37,18.07Z"/><path class="cls-24" d="M43.42,21.88a88,88,0,0,1,2.75-16C46.65,4,47,2.09,47.45.18h5c.41,3.11-1.38,6-1.73,9-.63,5.35-2.44,10.59-2.31,16A22.65,22.65,0,0,1,43.42,21.88Z"/><path class="cls-1" d="M22.48,10.33,0,.18H24a1.49,1.49,0,0,1,.59,1.09C24.29,4.35,24,7.44,22.48,10.33Z"/><path class="cls-27" d="M82.91.18c-.16,3.68-1.81,7.12-2.67,10.68A147.44,147.44,0,0,0,77.32,29.7c-.45,4.25-.29,8.48-.41,12.72,0,1.77.69,3.46.56,5.25a3.87,3.87,0,0,1-1,2.63,4.66,4.66,0,0,1-1.54-2c-.22-3.66-.51-7.32-.64-11a10.56,10.56,0,0,1,.49-4.41,7.13,7.13,0,0,0,.39-3.27c-.18-4.05.84-8,1.56-12,.57-3.18,1.24-6.37,1.8-9.56.47-2.7,2.12-5.21,2.43-8Z"/><path class="cls-19" d="M22.48,10.33c0-2.7,1-5.28,1.44-7.93A16.42,16.42,0,0,0,24,.18h7a3.61,3.61,0,0,1-.07,3.48c-1.3,2.43-.47,5.19-2.07,7.57-.42.62.76,1.54.15,2.38Z"/><path class="cls-29" d="M187.8,53.57c-.25-.17-.68-.31-.73-.51-.61-2.75-2.24-5.39-2.4-8.09-.14-2.31.15-4.78-.33-7-.45-2.05,1-3.74.4-5.9-.57-2,.94-4.35,1.79-6.49.39-1-.9-2.51,1.27-3Z"/></g></g></g></svg>