<svg id="State_Cases_" data-name="State Cases " xmlns="http://www.w3.org/2000/svg" width="1025" height="593" viewBox="0 0 1025 593">
  <rect id="Rectangle_Copy" data-name="Rectangle Copy" width="1025" height="593" rx="30" fill="#fff"/>
  <text id="State_Cases" data-name="State Cases" transform="translate(46 30)" fill="#554b86" font-size="20" font-family="Poppins-Medium, Poppins" font-weight="500"><tspan x="0" y="21">Métricas</tspan></text>
  <rect id="Rectangle" width="123" height="77" transform="translate(219 145)" fill="#f4faff"/>
  <rect id="Rectangle_Copy_53" data-name="Rectangle Copy 53" width="123" height="77" transform="translate(342 145)" fill="#ffecec"/>
  <rect id="Rectangle_Copy_55" data-name="Rectangle Copy 55" width="123" height="77" transform="translate(466 145)" fill="#e3ffef"/>
  <rect id="Rectangle_Copy_12" data-name="Rectangle Copy 12" width="171" height="77" transform="translate(43 145)" fill="#f4faff"/>
  <text id="Barishal" transform="translate(72 174)" fill="#4b4279" font-size="18" font-family="Poppins-Bold, Poppins" font-weight="700"><tspan x="0" y="19">Toribio</tspan></text>
  <text id="_1234" data-name="1234" transform="translate(262 190)" fill="#4b4279" font-size="18" font-family="Poppins-Regular, Poppins"><tspan x="0" y="0">55</tspan></text>
  <text id="_1234-2" data-name="1234" transform="translate(395 190)" fill="#574b90" font-size="18" font-family="Poppins-Regular, Poppins"><tspan x="0" y="0">14</tspan></text>
  <rect id="Rectangle-2" data-name="Rectangle" width="123" height="77" transform="translate(219 227)" fill="#f4faff"/>
  <rect id="Rectangle_Copy_53-2" data-name="Rectangle Copy 53" width="123" height="77" transform="translate(342 227)" fill="#ffecec"/>
  <rect id="Rectangle_Copy_55-2" data-name="Rectangle Copy 55" width="123" height="77" transform="translate(466 227)" fill="#e3ffef"/>
  <rect id="Rectangle_Copy_12-2" data-name="Rectangle Copy 12" width="171" height="77" transform="translate(43 227)" fill="#f4faff"/>
  <text id="Chittagong" transform="translate(72 256)" fill="#4b4279" font-size="18" font-family="Poppins-Bold, Poppins" font-weight="700"><tspan x="0" y="19">Primitiva</tspan></text>
  <text id="_1234-3" data-name="1234" transform="translate(262 272)" fill="#4b4279" font-size="18" font-family="Poppins-Regular, Poppins"><tspan x="0" y="0">170</tspan></text>
  <rect id="Rectangle-3" data-name="Rectangle" width="123" height="77" transform="translate(219 309)" fill="#f4faff"/>
  <rect id="Rectangle_Copy_53-3" data-name="Rectangle Copy 53" width="123" height="77" transform="translate(342 309)" fill="#ffecec"/>
  <rect id="Rectangle_Copy_55-3" data-name="Rectangle Copy 55" width="123" height="77" transform="translate(465 309)" fill="#e3ffef"/>
  <rect id="Rectangle_Copy_12-3" data-name="Rectangle Copy 12" width="171" height="77" transform="translate(43 309)" fill="#f4faff"/>
  <text id="Dhaka" transform="translate(72 338)" fill="#4b4279" font-size="18" font-family="Poppins-Bold, Poppins" font-weight="700"><tspan x="0" y="19">Climáco</tspan></text>
  <text id="_1234-4" data-name="1234" transform="translate(262 354)" fill="#4b4279" font-size="18" font-family="Poppins-Regular, Poppins"><tspan x="0" y="0">234</tspan></text>
  <rect id="Rectangle-4" data-name="Rectangle" width="123" height="77" transform="translate(219 391)" fill="#f4faff"/>
  <rect id="Rectangle_Copy_53-4" data-name="Rectangle Copy 53" width="123" height="77" transform="translate(342 391)" fill="#ffecec"/>
  <rect id="Rectangle_Copy_55-4" data-name="Rectangle Copy 55" width="123" height="77" transform="translate(463 391)" fill="#e3ffef"/>
  <rect id="Rectangle_Copy_12-4" data-name="Rectangle Copy 12" width="171" height="77" transform="translate(43 391)" fill="#f4faff"/>
  <text id="Syllet" transform="translate(72 420)" fill="#4b4279" font-size="18" font-family="Poppins-Bold, Poppins" font-weight="700"><tspan x="0" y="19">Alcides</tspan></text>
  <text id="_1234-5" data-name="1234" transform="translate(262 436)" fill="#4b4279" font-size="18" font-family="Poppins-Regular, Poppins"><tspan x="0" y="0">260</tspan></text>
  <rect id="Rectangle-5" data-name="Rectangle" width="123" height="77" transform="translate(219 473)" fill="#f4faff"/>
  <rect id="Rectangle_Copy_53-5" data-name="Rectangle Copy 53" width="123" height="77" transform="translate(342 473)" fill="#ffecec"/>
  <rect id="Rectangle_Copy_55-5" data-name="Rectangle Copy 55" width="123" height="77" transform="translate(466 473)" fill="#e3ffef"/>
  <rect id="Rectangle_Copy_12-5" data-name="Rectangle Copy 12" width="171" height="77" transform="translate(43 473)" fill="#f4faff"/>
  <text id="Khulna" transform="translate(72 502)" fill="#4b4279" font-size="18" font-family="Poppins-Bold, Poppins" font-weight="700"><tspan x="0" y="19">Balderes</tspan></text>
  <text id="_1234-6" data-name="1234" transform="translate(262 518)" fill="#4b4279" font-size="18" font-family="Poppins-Regular, Poppins"><tspan x="0" y="0">1234</tspan></text>
  <text id="State" transform="translate(65 105)" fill="rgba(75,66,121,0.51)" font-size="14" font-family="Poppins-Regular, Poppins"><tspan x="0" y="15">Zona</tspan></text>
  <text id="Total_Cases" data-name="Total Cases" transform="translate(233 105)" fill="rgba(75,66,121,0.51)" font-size="14" font-family="Poppins-Regular, Poppins"><tspan x="0" y="15">Beneficiarios </tspan></text>
  <text id="New_Cases" data-name="New Cases" transform="translate(357 105)" fill="rgba(75,66,121,0.51)" font-size="14" font-family="Poppins-Regular, Poppins"><tspan x="0" y="15">Pendientes</tspan></text>
  <text id="Total_Recoverd" data-name="Total Recoverd" transform="translate(483 105)" fill="rgba(75,66,121,0.51)" font-size="14" font-family="Poppins-Regular, Poppins"><tspan x="0" y="15">Verificados</tspan></text>
  <text id="_1234-7" data-name="1234" transform="translate(396 272)" fill="#574b90" font-size="18" font-family="Poppins-Regular, Poppins"><tspan x="0" y="0">79</tspan></text>
  <text id="_1234-8" data-name="1234" transform="translate(388 357)" fill="#574b90" font-size="18" font-family="Poppins-Regular, Poppins"><tspan x="0" y="0">220</tspan></text>
  <text id="_1234-9" data-name="1234" transform="translate(390 436)" fill="#574b90" font-size="18" font-family="Poppins-Regular, Poppins"><tspan x="0" y="0">20</tspan></text>
  <text id="_1234-10" data-name="1234" transform="translate(385 518)" fill="#574b90" font-size="18" font-family="Poppins-Regular, Poppins"><tspan x="0" y="0">760</tspan></text>
  <text id="_1234-11" data-name="1234" transform="translate(513 190)" fill="#574b90" font-size="18" font-family="Poppins-Regular, Poppins"><tspan x="0" y="0">31</tspan></text>
  <text id="_1234-12" data-name="1234" transform="translate(516 272)" fill="#574b90" font-size="18" font-family="Poppins-Regular, Poppins"><tspan x="0" y="0">73</tspan></text>
  <text id="_1234-13" data-name="1234" transform="translate(515 357)" fill="#574b90" font-size="18" font-family="Poppins-Regular, Poppins"><tspan x="0" y="0">10</tspan></text>
  <text id="_1234-14" data-name="1234" transform="translate(511 439)" fill="#574b90" font-size="18" font-family="Poppins-Regular, Poppins"><tspan x="0" y="0">235</tspan></text>
  <text id="_1234-15" data-name="1234" transform="translate(511 518)" fill="#574b90" font-size="18" font-family="Poppins-Regular, Poppins"><tspan x="0" y="0">640</tspan></text>
</svg>
